<?xml version="1.0" encoding="UTF-8" standalone="no"?>
<!-- Created with Inkscape (http://www.inkscape.org/) -->

<svg
   width="12.998236mm"
   height="4.9583001mm"
   viewBox="0 0 12.998236 4.9583001"
   version="1.1"
   id="svg1"
   xml:space="preserve"
   xmlns="http://www.w3.org/2000/svg"
   xmlns:svg="http://www.w3.org/2000/svg"><defs
     id="defs1" /><g
     id="layer12"
     transform="translate(-62.187637,-147.2902)"><path
       style="fill:#00ff00;stroke-width:0.264583"
       d="m 62.604694,147.63772 -0.417057,0.88045 0.11585,1.50603 0.857282,0.85728 6.163156,1.11215 1.598713,0.25487 0.648753,-1.20483 -2.224296,-0.69509 -1.645055,-0.69509 1.529205,0.62558 2.201126,0.71826 -0.09268,0.78777 2.363317,-0.23169 0.370715,-1.04264 c 0,0 -1.923089,-0.30121 -2.03894,-0.30121 -0.115847,0 -0.857279,-0.27804 -0.857279,-0.27804 l 2.108446,0.4634 0.440227,0.0695 0.139018,0.9963 1.320678,-0.64876 -0.254868,-1.2975 -1.737733,-0.0463 -3.197426,-0.57925 -2.409656,-1.59871 -2.177957,0.13902 z"
       id="path116" /></g></svg>
