<?xml version="1.0" encoding="UTF-8" standalone="no"?>
<!-- Created with Inkscape (http://www.inkscape.org/) -->

<svg
   width="19.953215mm"
   height="17.333641mm"
   viewBox="0 0 19.953215 17.333641"
   version="1.1"
   id="svg1"
   xml:space="preserve"
   inkscape:version="1.4.2 (f4327f4, 2025-05-13)"
   sodipodi:docname="Geckoo.svg"
   inkscape:export-batch-path="Desktop\KNGD-Build\assets"
   inkscape:export-batch-name="Geckoo"
   xmlns:inkscape="http://www.inkscape.org/namespaces/inkscape"
   xmlns:sodipodi="http://sodipodi.sourceforge.net/DTD/sodipodi-0.dtd"
   xmlns="http://www.w3.org/2000/svg"
   xmlns:svg="http://www.w3.org/2000/svg"><sodipodi:namedview
     id="namedview1"
     pagecolor="#ffffff"
     bordercolor="#000000"
     borderopacity="0.25"
     inkscape:showpageshadow="2"
     inkscape:pageopacity="0.0"
     inkscape:pagecheckerboard="0"
     inkscape:deskcolor="#d1d1d1"
     inkscape:document-units="mm"
     showguides="true"
     inkscape:zoom="1.4274173"
     inkscape:cx="347.83102"
     inkscape:cy="338.72366"
     inkscape:window-width="2560"
     inkscape:window-height="1351"
     inkscape:window-x="-9"
     inkscape:window-y="-9"
     inkscape:window-maximized="1"
     inkscape:current-layer="layer15"><sodipodi:guide
       position="30.671374,104.63592"
       orientation="0,-1"
       id="guide18"
       inkscape:locked="false" /><inkscape:page
       x="0"
       y="8.18636e-15"
       width="19.953215"
       height="17.333639"
       id="page2"
       margin="0"
       bleed="0" /></sodipodi:namedview><defs
     id="defs1" /><g
     inkscape:groupmode="layer"
     id="layer2"
     inkscape:label="head"
     style="display:inline"
     transform="translate(-49.017944,-90.44792)"><path
       style="opacity:1;fill:#00d400;stroke-width:0.264583"
       d="m 59.406554,107.73786 c 1.703882,0 1.212376,0.0983 1.703882,0 0.491506,-0.0983 1.106809,-3.21116 1.106809,-3.21116 0,0 5.610425,-1.93325 6.331298,-3.40777 0.720873,-1.474514 0.458741,-3.407766 -0.327671,-3.276697 -0.786408,0.131067 0.232574,-9.058794 -5.734222,-5.34102 -4.25971,2.654127 -0.897825,-7.472688 -10.714807,2.293689 -6.356796,6.324028 0.119498,8.112228 1.310679,8.617718 1.707629,0.72466 4.620147,1.04854 4.620147,1.04854 z"
       id="path106"
       sodipodi:nodetypes="cscssssscc"
       inkscape:label="head" /><rect
       style="fill:#f2f2f2;stroke-width:0.23595"
       id="rect1"
       width="4.6802917"
       height="4.2168965"
       x="53.985538"
       y="94.185074"
       ry="2.1084483"
       inkscape:label="R-eye"
       rx="1.7858009" /><rect
       style="fill:#e6e6e6;stroke-width:0.185485"
       id="rect2"
       width="2.3633156"
       height="2.7340317"
       x="65.755783"
       y="94.50946"
       ry="0.89713806"
       inkscape:label="L-eye"
       rx="1.1816578" /><path
       style="fill:#cccccc;stroke-width:0.264583"
       id="path2"
       sodipodi:type="arc"
       sodipodi:cx="55.928223"
       sodipodi:cy="96.154366"
       sodipodi:rx="1.1121485"
       sodipodi:ry="1.7956564"
       sodipodi:start="0"
       sodipodi:end="6.2764533"
       sodipodi:arc-type="slice"
       d="m 57.040371,96.154366 a 1.1121485,1.7956564 0 0 1 -1.110277,1.795653 1.1121485,1.7956564 0 0 1 -1.114014,-1.789609 1.1121485,1.7956564 0 0 1 1.106527,-1.801678 1.1121485,1.7956564 0 0 1 1.117739,1.783545 l -1.112123,0.01209 z"
       inkscape:label="R-iris" /><path
       style="fill:#cccccc;stroke-width:0.264583"
       id="path3"
       sodipodi:type="arc"
       sodipodi:cx="66.447441"
       sodipodi:cy="95.711327"
       sodipodi:rx="0.70667773"
       sodipodi:ry="1.1932428"
       sodipodi:start="0"
       sodipodi:end="6.2764533"
       sodipodi:arc-type="slice"
       d="m 67.154119,95.711327 a 0.70667773,1.1932428 0 0 1 -0.705489,1.193241 0.70667773,1.1932428 0 0 1 -0.707863,-1.189225 0.70667773,1.1932428 0 0 1 0.703106,-1.197244 0.70667773,1.1932428 0 0 1 0.71023,1.185195 l -0.706662,0.008 z"
       inkscape:label="L-iris" /><path
       style="fill:none;stroke:#000000;stroke-width:0.1;stroke-linecap:butt;stroke-linejoin:round;stroke-dasharray:none;stroke-opacity:1"
       d="m 68.728761,101.02063 c -0.240445,5.3e-4 -0.480838,-0.005 -0.720873,0.0164 -0.06082,0.005 -0.119721,0.0245 -0.180218,0.0328 -0.125511,0.0171 -0.25113,0.0334 -0.37682,0.0492 -0.06525,0.008 -0.131445,0.007 -0.196604,0.0164 -0.05518,0.008 -0.108521,0.0263 -0.163835,0.0328 -0.03796,0.004 -0.07684,-0.005 -0.114684,0 -0.03936,0.006 -0.07533,0.0272 -0.114683,0.0328 -0.07569,0.0108 -0.153083,-0.005 -0.22937,0 -0.04393,0.003 -0.08711,0.0138 -0.131067,0.0164 -0.145751,0.009 -0.296392,0 -0.442354,0 -0.09152,0 -0.18714,0.007 -0.278522,0 -0.04915,-0.005 -0.0983,-0.0109 -0.147449,-0.0164 -0.02186,-0.005 -0.04319,-0.0136 -0.06553,-0.0164 -0.05902,-0.007 -0.105849,-0.005 -0.163835,-0.0164 -0.05769,-0.0115 -0.121722,0.007 -0.180219,0 -0.293928,-0.0367 -0.60176,-0.0494 -0.901091,-0.0328 -0.07172,0.004 -0.141513,0.0256 -0.212987,0.0328 -0.173294,0.0173 -0.350734,0.002 -0.524272,0.0164 -0.138202,0.0115 -0.268211,0.0592 -0.409586,0.0491 -0.166237,-0.0119 -0.0625,-0.0262 -0.229369,-0.0164 -0.117237,0.007 -0.226653,0.022 -0.344054,0.0164 -0.138692,-0.007 -0.27178,-0.0164 -0.409588,-0.0164 -0.06359,0 -0.411017,-0.0204 -0.458737,0 -0.02511,0.0108 -0.04183,0.0356 -0.06554,0.0492 -0.015,0.009 -0.0337,0.009 -0.04915,0.0164 -0.108604,0.0543 -0.216077,0.12044 -0.311288,0.1966 -0.0624,0.0499 -0.124058,0.11119 -0.196601,0.14746 -0.07735,0.0387 -0.151789,-0.005 -0.229367,0.0164 -0.03535,0.01 -0.06296,0.0395 -0.0983,0.0492 -0.02635,0.007 -0.05526,-0.006 -0.08192,0 -0.02384,0.005 -0.04158,0.028 -0.06553,0.0328 -0.03213,0.006 -0.06557,-0.001 -0.0983,0 -0.09291,0.004 -0.185682,0.0109 -0.278521,0.0164 -0.109223,0 -0.218493,-0.003 -0.327668,0 -0.479153,0.0141 0.005,0.0287 -0.425972,0 -0.08693,-0.006 -0.175392,0.008 -0.262136,0 -0.204538,-0.0186 -0.402034,-0.0625 -0.606189,-0.0819 -0.201491,-0.0192 -0.40622,-0.0184 -0.60619,-0.0491 -0.181887,-0.028 -0.361315,-0.0766 -0.540654,-0.11468 -0.05973,-0.0127 -0.119537,-0.026 -0.180219,-0.0328 -0.03799,-0.004 -0.07744,0.009 -0.114686,0 -0.0357,-0.008 -0.06355,-0.0376 -0.0983,-0.0491 -0.01553,-0.005 -0.03326,0.004 -0.04915,0 -0.02853,-0.007 -0.05339,-0.0256 -0.08192,-0.0328 -0.592072,-0.14802 0.116673,0.0444 -0.294905,-0.0491 -0.08267,-0.0188 -0.162467,-0.0497 -0.24575,-0.0655 -0.03219,-0.006 -0.06606,0.006 -0.0983,0 -0.02894,-0.005 -0.05375,-0.0243 -0.08192,-0.0328 -0.05645,-0.0169 -0.123463,-0.035 -0.180221,-0.0491 -0.03538,-0.009 -0.09889,0.0161 -0.131067,0 -0.0699,-0.0349 0.0426,-0.036 -0.04915,-0.0491 -0.02703,-0.004 -0.05514,0.005 -0.08192,0 -0.167773,-0.0336 -0.338506,-0.15982 -0.491504,-0.22937 -0.04126,-0.0188 -0.102044,-0.0401 -0.147452,-0.0491 -0.01606,-0.003 -0.0334,0.004 -0.04915,0 -0.0724,-0.0207 -0.161277,-0.10962 -0.22937,-0.14745 -0.01511,-0.008 -0.0351,-0.006 -0.04915,-0.0164 -0.08934,-0.0638 -0.04302,-0.0594 -0.114684,-0.13106 -0.01931,-0.0193 -0.04622,-0.0298 -0.06553,-0.0492 -0.08606,-0.0861 -0.01701,-0.0402 -0.08192,-0.13107 -0.03254,-0.0456 -0.05209,-0.0349 -0.06553,-0.0819 -0.0076,-0.0268 -0.0051,-0.0565 -0.01638,-0.0819 -0.01109,-0.025 -0.03468,-0.0424 -0.04915,-0.0655 -0.01294,-0.0207 -0.02506,-0.0424 -0.03277,-0.0655 -0.0035,-0.0104 0.0068,-0.0242 0,-0.0328 -0.125507,-0.156883 -0.03087,0.0202 -0.08192,-0.08192"
       id="path4"
       inkscape:label="mouth" /></g></svg>
