<?xml version="1.0" encoding="UTF-8" standalone="no"?>
<!-- Created with Inkscape (http://www.inkscape.org/) -->

<svg
   width="36.793579mm"
   height="65.345551mm"
   viewBox="0 0 36.793579 65.345551"
   version="1.1"
   id="svg1"
   xml:space="preserve"
   xmlns="http://www.w3.org/2000/svg"
   xmlns:svg="http://www.w3.org/2000/svg"><defs
     id="defs1" /><g
     id="layer13"
     transform="translate(-40.315383,-93.320965)"><ellipse
       style="fill:#999999;stroke-width:0.264583"
       id="path117"
       cx="58.712173"
       cy="154.95935"
       rx="18.39679"
       ry="3.7071617" /></g><g
     id="layer3-8"
     style="display:inline"
     transform="translate(-9.7568782,-97.358881)"><path
       style="display:inline;fill:#0000ff;stroke-width:0.264583"
       d="m 32.31369,113.77172 -1.283445,3.77188 1.208321,5.73301 c 0,0 2.835082,0.44841 3.536113,0.4563 0.472542,0.005 2.044909,-1.0138 2.044909,-1.0138 l 0.6332,-6.69535 -1.846112,-3.14337 c -3.036824,-2.02905 -4.292986,0.89133 -4.292986,0.89133 z"
       id="path107-0" /></g><g
     id="layer4-1"
     style="display:inline"
     transform="matrix(0.61367747,-0.61674832,0.64638335,0.64316495,-77.435013,-19.786579)"><path
       style="display:inline;fill:#000080;stroke-width:0.235301"
       d="m 48.434662,116.88469 c -0.344341,1.54338 -0.344341,1.54338 -0.344341,1.54338 l -0.740719,4.89335 -0.112028,1.31099 -2.535506,-0.0954 -1.075873,0.66685 -0.06906,-3.1183 -0.507578,-3.52765 0.282234,-2.65094 0.86917,-1.45431 1.111966,1.34398 z"
       id="path108-2" /></g><g
     id="layer10"
     transform="translate(-39.388593,-90.447915)"><path
       style="fill:#000080;stroke-width:0.264583"
       d="m 61.07549,135.82114 0.04634,2.82671 -0.139017,2.87305 1.297506,3.15109 0.324376,1.85358 -0.04634,1.25117 2.548673,1.01946 2.409656,-0.74143 -0.602414,-1.7609 0.04634,-1.29751 0.463394,-3.70716 0.648753,-3.70716 0.509736,-2.64135 -5.69976,-0.78777 z"
       id="path114" /></g><g
     id="layer9"
     transform="translate(-39.388593,-90.447915)"><path
       style="fill:#0000ff;stroke-width:0.264583"
       d="m 59.082889,130.67745 c 1.158489,3.15109 1.158489,3.15109 1.158489,3.15109 l 1.06581,2.03894 3.382785,2.36331 3.058406,1.15849 0.880452,-1.80724 -0.370716,-3.7535 -0.648753,-5.9778 -1.11215,-6.07048 -3.058408,0.97313 -3.290105,5.19003 z"
       id="path113" /></g><g
     id="layer6"
     transform="translate(-39.388593,-90.447915)"><path
       style="display:inline;fill:#008080;stroke-width:0.264583"
       d="m 50.788117,102.13231 -0.695095,1.15848 0.556075,1.62189 -1.204828,0.32437 -1.760903,3.15109 0.417058,4.12422 1.714561,4.12422 0.556075,2.08528 0.509735,5.65342 2.734032,1.01946 5.282704,5.42173 2.363317,-0.74143 4.355914,-4.26324 0.88045,-2.2243 -0.324376,-8.61915 0.648753,-0.92679 0.370718,-1.39018 -0.695095,-4.03154 -1.807239,-2.68769 -0.324379,-0.37072 -0.09268,-1.7609 -1.992598,0.60241 -1.204828,3.05841 -1.621883,0.18536 -1.112149,-3.10475 -2.548673,-0.41706 -3.058409,-0.78777 z"
       id="path110" /></g><g
     id="layer8"
     transform="translate(-39.388593,-90.447915)"><path
       style="fill:#000080;stroke-width:0.264583"
       d="m 54.703804,136.80585 -3.498632,0.45181 -3.672407,-0.93838 -1.47128,2.90781 -0.370717,2.20113 -0.278038,6.40643 -0.532904,1.78408 c 0.0168,0.31036 1.40177,0.77233 1.957844,0.88046 l 2.849883,-0.37072 0.104265,-2.58343 2.062108,-4.68029 1.482865,-1.80725 z"
       id="path112" /></g><g
     id="layer7"
     style="display:inline"
     transform="translate(-39.388593,-90.447915)"><path
       style="display:inline;fill:#0000ff;stroke-width:0.29705"
       d="m 29.844705,121.64443 -7.838404,1.84993 -3.049896,-0.2588 -3.0884,0.0645 -1.315411,-1.04524 -0.448741,-1.22285 0.531394,-1.57986 1.734854,-0.93017 -1.013937,-1.11639 3.168422,-1.86106 4.375085,-2.43314 3.545222,-1.93203 2.56359,-1.00007 1.392617,0.32673 2.252713,2.66454 0.364201,4.74424 -1.511895,2.08062 z"
       id="path111"
       transform="matrix(0.61367747,-0.61674833,0.64638335,0.64316496,-38.046419,70.661337)" /></g><g
     id="layer5-5"
     style="display:inline"
     transform="translate(-9.7568782,-97.358881)"><path
       style="display:inline;fill:#00d400;stroke-width:0.264583"
       d="m 37.161591,129.96299 -0.05085,2.31688 0.991203,2.62012 1.320178,0.25744 0.303509,-1.18107 -0.808549,-1.22957 -0.02159,-0.81099 0.808462,1.27592 0.552549,1.80831 -0.416964,-0.0472 1.155782,1.39244 1.391085,-0.46068 0.303958,-1.41277 -1.476999,-3.01495 1.500302,2.94548 0.999051,-1.41141 0.04823,-0.97304 -1.17827,-1.74003 1.316746,2.01834 0.374598,-1.99187 -3.539149,-2.9958 -1.76198,0.55264 z"
       id="path109-0" /></g><g
     id="layer2"
     style="display:inline"
     transform="translate(-39.388593,-90.447915)"><path
       style="opacity:1;fill:#99ff55;stroke-width:0.264583"
       d="m 59.406554,107.73786 c 1.703882,0 1.212376,0.0983 1.703882,0 0.491506,-0.0983 0.851942,-3.21116 0.851942,-3.21116 0,0 5.865292,-1.93325 6.586165,-3.40777 0.720873,-1.474514 0.458741,-3.407766 -0.327671,-3.276697 -0.786408,0.131067 0.232574,-9.058794 -5.734222,-5.34102 -4.25971,2.654127 -0.897825,-7.472688 -10.714807,2.293689 -6.356796,6.324028 0.119498,8.112228 1.310679,8.617718 1.707629,0.72466 4.620147,1.04854 4.620147,1.04854 z"
       id="path106" /></g><g
     id="layer3"
     style="display:inline"
     transform="translate(-39.388593,-90.447915)"><path
       style="display:inline;fill:#0000ff;stroke-width:0.264583"
       d="m 52.459951,108.26214 -0.393204,3.9648 -3.473302,4.71844 c 0,0 -2.766365,-0.7655 -3.407766,-1.04854 -0.432346,-0.19079 -1.441747,-1.76941 -1.441747,-1.76941 l 2.195389,-6.3568 2.981795,-2.09709 c 3.60437,-0.58981 3.538835,2.5886 3.538835,2.5886 z"
       id="path107" /></g><g
     id="layer4"
     style="display:inline"
     transform="translate(-39.388593,-90.447915)"><path
       style="display:inline;fill:#000080;stroke-width:0.264583"
       d="m 48.429611,116.87985 c -0.393203,1.73665 -0.393203,1.73665 -0.393203,1.73665 l -0.851942,5.50486 -0.13107,1.47451 -2.850726,-0.0983 -1.212379,0.75364 -0.06553,-3.50607 -0.557038,-3.9648 0.327671,-2.9818 0.983009,-1.63835 1.245145,1.50728 z"
       id="path108" /></g><g
     id="layer5"
     style="display:inline"
     transform="translate(-39.388593,-90.447915)"><path
       style="display:inline;fill:#00d400;stroke-width:0.264583"
       d="m 47.118931,125.3665 1.671116,1.60558 1.146844,2.55583 -0.753639,1.11408 -1.048543,-0.62257 -0.294905,-1.44175 -0.557038,-0.58981 0.327671,1.47452 0.884708,1.67111 0.262136,-0.32767 0.163835,1.80219 -1.310679,0.65534 -1.212379,-0.78641 -1.08131,-3.1784 1.015775,3.14563 -1.703882,-0.2949 -0.720873,-0.65534 -0.393206,-2.06432 0.491506,2.35922 -1.671116,-1.14684 0.393203,-4.62015 1.63835,-0.85194 z"
       id="path109" /></g><g
     id="layer11"
     transform="translate(-39.388593,-90.447915)"><path
       style="fill:#00ff00;stroke-width:0.264583"
       d="m 49.652798,150.07054 0.06951,2.31698 0.09268,1.11214 0.509735,1.08898 -0.94996,0.97313 -1.112149,-0.11584 -0.370716,-1.9231 -0.78777,-0.0927 -0.764604,1.83041 -1.181658,0.0463 -1.227997,-0.78777 1.274336,-1.62189 -1.297506,1.57554 -0.301207,0.37072 -1.691391,-0.16219 0.162187,-1.32067 1.297506,-0.57925 1.506035,-3.31327 1.87675,-0.44023 z"
       id="path115" /></g><g
     id="layer12"
     transform="translate(-39.388593,-90.447915)"><path
       style="fill:#00ff00;stroke-width:0.264583"
       d="m 62.604694,147.63772 -0.417057,0.88045 0.11585,1.50603 0.857282,0.85728 6.163156,1.11215 1.598713,0.25487 0.648753,-1.20483 -2.224296,-0.69509 -1.645055,-0.69509 1.529205,0.62558 2.201126,0.71826 -0.09268,0.78777 2.363317,-0.23169 0.370715,-1.04264 c 0,0 -1.923089,-0.30121 -2.03894,-0.30121 -0.115847,0 -0.857279,-0.27804 -0.857279,-0.27804 l 2.108446,0.4634 0.440227,0.0695 0.139018,0.9963 1.320678,-0.64876 -0.254868,-1.2975 -1.737733,-0.0463 -3.197426,-0.57925 -2.409656,-1.59871 -2.177957,0.13902 z"
       id="path116" /></g></svg>
